:SAMPLES-PER-SECOND 30
:FULLY-SPECIFIED
:DEGREES
263
root  27.4552 39.338 0.698552 103.227 -88.8773 -110.732
RightUpLeg  2.65392 -16.6818 -0.21566
RightLeg  23.2461 1.9631 0.961306
RightFoot  -15.0869 -0.196142 -2.87418
RightToes  0.00048216 0.542163 -0.142577
Spine  14.8827 0.541999 8.08157
Spine1  8.25372 2.25934 -2.60038
HEad  -10.0004 -1.043 -2.16397
LeftShoulder1  7.2716 -11.4188 -42.3209
LeftArm  -10.2498 22.6924 -31.2666
LeftForeArm  35.1732 -14.761 -4.10125
LeftHand  -0.25398 0.0180481 5.50724
RightShoulder  4.86238 8.42515 34.8032
RightArm  5.69868 8.20437 40.5056
RightForeArm  7.41746 20 4.97468
RightHand  -1.90867 6.27606 -19.2145
LeftUpLeg  -17.5936 14.337 0.836972
LeftLeg  10.9261 3.90153 -0.556149
LeftFoot  0.275055 1.04164 -10.2404
LeftToes  1.06247e-005 4.65855e-005 -8.18501e-006
264
root  28.588 39.6427 0.71365 74.7197 -89.4958 -81.6165
RightUpLeg  1.33013 -16.269 -0.780172
RightLeg  20.6928 1.4664 2.01331
RightFoot  -12.4245 -0.114284 -3.1489
RightToes  0.00048216 0.542163 -0.142577
Spine  14.4104 0.666539 7.44109
Spine1  7.85732 2.25999 -2.39483
HEad  -8.41752 -1.52783 -2.21277
LeftShoulder1  7.22775 -11.4063 -42.0856
LeftArm  -9.74104 22.0773 -31.1252
LeftForeArm  34.1864 -16.4841 -3.83673
LeftHand  -0.25398 0.0180481 5.50724
RightShoulder  4.8731 8.41494 34.9261
RightArm  1.91751 4.59678 40.7296
RightForeArm  10.9215 15.9338 6.08303
RightHand  -1.6156 5.24425 -17.8597
LeftUpLeg  -17.0122 14.6041 0.542125
LeftLeg  16.6472 2.83272 1.49975
LeftFoot  -1.08345 0.867838 -9.57746
LeftToes  1.06247e-005 4.65855e-005 -8.18501e-006
265
root  29.6805 39.8458 0.769381 -6.21164 -89.5625 -0.058609
RightUpLeg  -0.078098 -14.8054 -1.29291
RightLeg  18.5141 -0.359801 3.0295
RightFoot  -10.1768 -0.0373928 -3.12472
RightToes  0.00048216 0.542163 -0.142577
Spine  13.7602 0.560286 7.00978
Spine1  7.69809 2.08118 -2.20677
HEad  -7.60291 -1.81597 -2.37919
LeftShoulder1  7.17264 -11.3348 -41.957
LeftArm  -9.12408 21.8622 -30.9845
LeftForeArm  32.803 -19.352 -3.43283
LeftHand  -0.25398 0.0180481 5.50724
RightShoulder  4.87204 8.4026 34.9589
RightArm  -1.53402 0.90624 40.8018
RightForeArm  15.2614 12.7058 6.77838
RightHand  -1.33388 4.16744 -16.4477
LeftUpLeg  -15.5989 10.9741 1.65582
LeftLeg  22.4192 5.75305 2.9234
LeftFoot  -2.7185 0.659228 -8.50492
LeftToes  1.06247e-005 4.65855e-005 -8.18501e-006
266
root  30.7727 39.9296 0.865242 -28.3238 -89.1599 22.6361
RightUpLeg  -1.84266 -13.6571 -1.616
RightLeg  17.1457 -2.01655 3.71857
RightFoot  -8.25877 0.0258304 -3.02546
RightToes  0.00048216 0.542163 -0.142577
Spine  13.0822 0.378759 7.01545
Spine1  7.89928 1.9536 -2.23534
HEad  -7.83047 -1.97252 -2.43708
LeftShoulder1  7.12229 -11.248 -41.9035
LeftArm  -9.07748 21.4561 -30.8214
LeftForeArm  32.2558 -22.6231 -3.30831
LeftHand  -0.25398 0.0180481 5.50724
RightShoulder  4.8465 8.36617 34.8707
RightArm  -2.90641 -2.94875 40.7379
RightForeArm  17.7442 11.2319 6.91852
RightHand  -1.24922 3.71344 -16.1549
LeftUpLeg  -13.8033 8.57863 2.3121
LeftLeg  27.8516 6.93438 4.27838
LeftFoot  -4.56192 0.4647 -7.38445
LeftToes  1.06247e-005 4.65855e-005 -8.18501e-006
267
root  31.8839 39.9239 0.992221 -32.815 -89.0423 27.7352
RightUpLeg  -3.93027 -12.9556 -1.68523
RightLeg  16.2215 -2.95068 4.17554
RightFoot  -6.60859 0.0840028 -3.10476
RightToes  0.00048216 0.542163 -0.142577
Spine  12.3837 0.228769 7.18637
Spine1  8.2753 1.8736 -2.2924
HEad  -8.53271 -1.86964 -2.52837
LeftShoulder1  7.05915 -11.0979 -41.9623
LeftArm  -10.246 20.7861 -30.6787
LeftForeArm  33.2705 -25.8644 -3.76752
LeftHand  -0.25398 0.0180481 5.50724
RightShoulder  4.81239 8.31922 34.7464
RightArm  -2.28589 -6.9178 40.3446
RightForeArm  18.0721 11.427 6.93267
RightHand  -1.30167 3.78538 -16.6825
LeftUpLeg  -11.4925 7.14161 2.7917
LeftLeg  32.2784 6.71204 4.88516
LeftFoot  -6.38526 0.343648 -7.07936
LeftToes  1.06247e-005 4.65855e-005 -8.18501e-006
268
root  33.025 39.8609 1.15347 -19.5771 -89.0862 15.0127
RightUpLeg  -6.08106 -12.3625 -1.4105
RightLeg  15.4794 -3.61275 4.51986
RightFoot  -5.07192 0.134355 -3.08135
RightToes  0.00048216 0.542163 -0.142577
Spine  11.8721 -0.0353216 7.50479
Spine1  8.55782 1.60991 -2.11933
HEad  -8.96145 -1.32032 -3.03688
LeftShoulder1  6.99662 -10.8913 -42.2023
LeftArm  -11.9181 20.1037 -30.6553
LeftForeArm  34.7476 -29.0331 -4.39706
LeftHand  -0.25398 0.0180481 5.50724
RightShoulder  4.76091 8.24719 34.5604
RightArm  -0.0323225 -10.742 39.6031
RightForeArm  16.6502 12.7537 6.89794
RightHand  -1.35871 3.96943 -17.0677
LeftUpLeg  -8.54727 6.20009 3.36312
LeftLeg  35.2983 5.98916 4.89494
LeftFoot  -7.96812 0.268628 -7.49855
LeftToes  1.06247e-005 4.65855e-005 -8.18501e-006
269
root  34.2136 39.7568 1.34971 11.181 -88.9786 -15.4768
RightUpLeg  -8.18237 -12.1275 -0.907175
RightLeg  15.0438 -4.14563 4.63412
RightFoot  -3.40112 0.141548 -2.3847
RightToes  0.00048216 0.542163 -0.142577
Spine  11.8224 -0.472898 7.90374
Spine1  8.57855 1.1108 -1.74352
HEad  -9.05457 -0.451012 -3.80298
LeftShoulder1  6.96666 -10.7453 -42.4676
LeftArm  -13.5026 19.5176 -30.8449
LeftForeArm  35.9746 -31.9944 -5.01128
LeftHand  -0.25398 0.0180481 5.50724
RightShoulder  4.63066 8.04366 34.15
RightArm  3.28131 -14.1753 38.8131
RightForeArm  13.7573 14.6488 6.69455
RightHand  -1.36684 4.04452 -17.0359
LeftUpLeg  -5.02332 5.45751 3.96004
LeftLeg  36.8572 5.48342 4.75836
LeftFoot  -9.06287 0.210889 -7.85734
LeftToes  1.06247e-005 4.65855e-005 -8.18501e-006
270
root  35.4495 39.6115 1.55457 24.9585 -88.6878 -29.1089
RightUpLeg  -10.3586 -12.6386 -0.494773
RightLeg  14.8988 -4.02326 4.49854
RightFoot  -1.65936 0.0633118 -0.886066
RightToes  0.00048216 0.542163 -0.142577
Spine  12.1248 -0.883842 7.76722
Spine1  8.32422 0.519143 -1.18607
HEad  -9.14258 0.455027 -4.19883
LeftShoulder1  6.96106 -10.7275 -42.488
LeftArm  -14.3613 18.9761 -31.2296
LeftForeArm  36.7873 -34.6512 -5.61392
LeftHand  -0.25398 0.0180481 5.50724
RightShoulder  4.41184 7.68549 33.483
RightArm  6.60332 -17.1779 38.2774
RightForeArm  10.1561 16.6633 6.27411
RightHand  -1.3477 3.99657 -16.8865
LeftUpLeg  -1.26295 5.09344 4.22123
LeftLeg  37.0673 4.64583 4.121
LeftFoot  -9.42108 0.194391 -8.20777
LeftToes  1.06247e-005 4.65855e-005 -8.18501e-006
271
root  36.7174 39.4357 1.74265 20.8353 -88.4256 -24.6931
RightUpLeg  -12.576 -13.283 -0.369556
RightLeg  14.4482 -3.58835 4.42006
RightFoot  -0.125758 -0.0974264 0.987898
RightToes  0.00048216 0.542163 -0.142577
Spine  12.3352 -1.17822 6.80165
Spine1  7.94554 -0.143132 -0.350096
HEad  -9.10482 1.26949 -4.15921
LeftShoulder1  6.94481 -10.7613 -42.2751
LeftArm  -14.1861 18.4192 -31.5205
LeftForeArm  37.6645 -37.1967 -6.22445
LeftHand  -0.25398 0.0180481 5.50724
RightShoulder  4.20667 7.36611 32.7581
RightArm  8.79398 -19.8746 38.0414
RightForeArm  7.04437 18.4905 5.73841
RightHand  -1.33115 3.90863 -16.8355
LeftUpLeg  2.43825 5.06963 4.08907
LeftLeg  35.7461 2.72864 2.48166
LeftFoot  -9.36772 0.212246 -9.07472
LeftToes  1.06247e-005 4.65855e-005 -8.18501e-006
272
root  38.016 39.2806 1.92159 12.6373 -87.8829 -16.0267
RightUpLeg  -14.3375 -12.8524 -0.754707
RightLeg  12.7983 -4.54894 4.72371
RightFoot  1.40242 -0.306566 2.82976
RightToes  0.00048216 0.542163 -0.142577
Spine  12.3164 -1.50141 5.52545
Spine1  7.54427 -0.916032 0.517056
HEad  -9.01267 1.84294 -3.77198
LeftShoulder1  6.91216 -10.7553 -42.0813
LeftArm  -13.3149 17.725 -31.4132
LeftForeArm  39.346 -39.8266 -6.85473
LeftHand  -0.25398 0.0180481 5.50724
RightShoulder  4.11118 7.26807 32.2234
RightArm  9.2539 -22.3445 38.0201
RightForeArm  4.95333 19.9294 5.28841
RightHand  -1.33277 3.88486 -16.896
LeftUpLeg  5.94866 5.04705 3.70431
LeftLeg  32.445 0.461257 0.674061
LeftFoot  -10.0391 0.170664 -9.83192
LeftToes  1.06247e-005 4.65855e-005 -8.18501e-006
